<svg width="24" height="24" viewBox="0 0 24 24" fill="none" xmlns="http://www.w3.org/2000/svg">
<path fill-rule="evenodd" clip-rule="evenodd" d="M19.3489 10.2017C19.3489 9.92566 19.1249 9.70166 18.8489 9.70166H5.65297C5.37597 9.70166 5.15297 9.92566 5.15297 10.2017C5.15297 11.1987 5.13497 12.1277 5.11797 12.9887C5.04397 16.7377 4.99497 19.2147 6.50997 20.7597C7.58597 21.8567 9.35297 22.3467 12.2399 22.3467C15.1299 22.3467 16.8999 21.8557 17.9789 20.7567C19.5009 19.2047 19.4529 16.7157 19.3819 12.9457C19.3659 12.0967 19.3489 11.1817 19.3489 10.2017Z" fill="black"/>
<path fill-rule="evenodd" clip-rule="evenodd" d="M20.325 6.37833H16.184C16.143 5.72433 15.962 4.80233 15.311 4.05433C14.623 3.26333 13.593 2.86133 12.249 2.86133C10.906 2.86133 9.87605 3.26333 9.18805 4.05433C8.53705 4.80233 8.35505 5.72433 8.31405 6.37833H4.17505C3.76105 6.37833 3.42505 6.71433 3.42505 7.12833C3.42505 7.54233 3.76105 7.87833 4.17505 7.87833H20.325C20.739 7.87833 21.075 7.54233 21.075 7.12833C21.075 6.71433 20.739 6.37833 20.325 6.37833Z" fill="black"/>
</svg>
