<svg width="20" height="20" viewBox="0 0 20 20" fill="none" xmlns="http://www.w3.org/2000/svg">
<path d="M14.5934 16.3334H19.8334C19.3934 10.5267 16.8934 6.92008 13.6867 4.78675L15.1467 1.60008C15.1908 1.49896 15.2092 1.38847 15.2001 1.27852C15.191 1.16856 15.1548 1.06258 15.0947 0.970075C15.0345 0.87757 14.9524 0.801434 14.8556 0.748494C14.7588 0.695554 14.6504 0.667466 14.54 0.666748H5.40003C5.2897 0.667466 5.18128 0.695554 5.08448 0.748494C4.98768 0.801434 4.90554 0.87757 4.84541 0.970075C4.78528 1.06258 4.74905 1.16856 4.73997 1.27852C4.73088 1.38847 4.74923 1.49896 4.79337 1.60008L5.59337 3.33341H12.34L11.74 4.66675H10.5067C10.883 5.67971 11.1598 6.72686 11.3334 7.79341C11.4447 8.45518 11.5159 9.12306 11.5467 9.79341L10.4934 10.5334C10.4964 9.6711 10.425 8.81013 10.28 7.96008C10.0961 6.82868 9.77828 5.72314 9.33337 4.66675H8.6667C8.05096 5.44376 7.4981 6.26859 7.01337 7.13341C6.62233 7.87509 6.29019 8.64635 6.02003 9.44008L5.1067 8.83341C5.37388 8.06641 5.70157 7.32184 6.0867 6.60675C6.47664 5.93658 6.90398 5.28889 7.3667 4.66675H6.20003L6.25337 4.78008C2.72003 7.13341 0.0333657 11.2667 0.0333657 18.1667C0.0243569 18.3118 0.0441776 18.4572 0.0916826 18.5945C0.139188 18.7319 0.213435 18.8584 0.310136 18.9669C0.406837 19.0754 0.524075 19.1636 0.655075 19.2265C0.786076 19.2894 0.928244 19.3258 1.07337 19.3334H6.4067C6.17769 19.0951 6.01957 18.7977 5.95005 18.4745C5.88053 18.1514 5.90236 17.8153 6.01309 17.5038C6.12383 17.1924 6.31909 16.918 6.577 16.7112C6.83491 16.5045 7.14529 16.3737 7.47337 16.3334C7.31371 16.0626 7.2286 15.7544 7.2267 15.4401C7.2267 14.9627 7.41634 14.5049 7.75391 14.1673C8.09147 13.8297 8.54931 13.6401 9.0267 13.6401H13.0267C13.5041 13.6401 13.9619 13.8297 14.2995 14.1673C14.6371 14.5049 14.8267 14.9627 14.8267 15.4401C14.8301 15.7534 14.7496 16.0618 14.5934 16.3334Z" fill="black"/>
</svg>
