<svg width="20" height="20" viewBox="0 0 20 20" fill="none" xmlns="http://www.w3.org/2000/svg">
<path d="M19.9968 15.23C19.9968 15.957 19.5918 17.357 18.6818 18.126C18.4998 18.266 18.3178 18.187 18.3978 17.983C18.6628 17.335 19.2688 15.836 18.9848 15.491C18.7838 15.229 17.9538 15.249 17.2458 15.309C16.9228 15.35 16.6388 15.369 16.4188 15.414C16.2148 15.43 16.1738 15.251 16.3778 15.111C16.6436 14.9236 16.9372 14.7792 17.2478 14.683C18.3978 14.339 19.7268 14.546 19.9178 14.766C19.9538 14.808 19.9968 14.927 19.9968 15.23ZM18.0748 16.523C17.8119 16.7258 17.5348 16.9096 17.2458 17.073C15.1238 18.348 12.3748 19.016 9.98782 19.016C6.14482 19.016 2.70782 17.599 0.0998209 15.228C-0.124179 15.046 0.0608209 14.782 0.322821 14.925C3.13282 16.565 6.61082 17.557 10.2108 17.557C12.4768 17.557 14.9188 17.133 17.2458 16.221C17.4088 16.16 17.5908 16.077 17.7498 16.019C18.1168 15.854 18.4398 16.261 18.0748 16.523ZM11.9048 5.493C11.9048 4.452 11.9468 3.839 11.6018 3.313C11.2958 2.88 10.7688 2.62 10.0328 2.661C9.23482 2.705 8.37782 3.228 8.15982 4.187C8.11682 4.407 7.98882 4.623 7.72282 4.67L5.28782 4.36C5.11382 4.32 4.84882 4.187 4.93582 3.839C5.45882 1.088 7.80982 0.129 10.0338 0H10.5558C11.7758 0 13.3438 0.349 14.3468 1.264C15.5638 2.4 15.4338 3.926 15.4338 5.584V9.511C15.4338 10.689 15.9118 11.211 16.3918 11.825C16.5218 12.044 16.5668 12.302 16.3478 12.48C15.7178 13.0417 15.0787 13.5931 14.4308 14.134C14.2558 14.267 13.9418 14.281 13.8208 14.179C13.0508 13.534 12.8628 13.176 12.3858 12.521C11.5558 13.392 10.8588 13.873 10.0298 14.134C9.4469 14.2823 8.8473 14.3549 8.24582 14.35C6.15582 14.35 4.50082 13.047 4.50082 10.47C4.50082 8.421 5.59082 7.028 7.20082 6.369C8.81082 5.709 11.1508 5.499 11.9048 5.495M11.4278 10.687C11.9478 9.815 11.9048 9.101 11.9048 7.502C11.2528 7.502 10.5988 7.547 10.0338 7.68C8.98882 7.983 8.15882 8.64 8.15882 10.035C8.15882 11.125 8.72682 11.867 9.68482 11.867C9.81682 11.867 9.93282 11.852 10.0328 11.822C10.7028 11.636 11.1208 11.3 11.4278 10.687Z" fill="black"/>
</svg>
