<svg width="26" height="27" viewBox="0 0 26 27" fill="none" xmlns="http://www.w3.org/2000/svg">
<path d="M8.22638 3.05176e-05H18.7212C22.7192 3.05176e-05 25.9676 3.45709 25.9676 7.71193V18.8809C25.9676 20.9262 25.2041 22.8878 23.8451 24.334C22.4862 25.7803 20.643 26.5928 18.7212 26.5928H8.22638C4.22837 26.5928 0.97998 23.1357 0.97998 18.8809V7.71193C0.97998 5.66661 1.74344 3.70506 3.1024 2.25879C4.46136 0.812532 6.30451 3.05176e-05 8.22638 3.05176e-05ZM7.9765 2.65931C6.78362 2.65931 5.6396 3.16362 4.7961 4.0613C3.95261 4.95898 3.47874 6.17649 3.47874 7.446V19.1468C3.47874 21.7928 5.49024 23.9335 7.9765 23.9335H18.971C20.1639 23.9335 21.3079 23.4292 22.1514 22.5315C22.9949 21.6338 23.4688 20.4163 23.4688 19.1468V7.446C23.4688 4.80002 21.4573 2.65931 18.971 2.65931H7.9765ZM20.033 4.65376C20.4472 4.65376 20.8444 4.82887 21.1373 5.14057C21.4302 5.45226 21.5947 5.87501 21.5947 6.31581C21.5947 6.75661 21.4302 7.17936 21.1373 7.49106C20.8444 7.80275 20.4472 7.97786 20.033 7.97786C19.6188 7.97786 19.2216 7.80275 18.9287 7.49106C18.6358 7.17936 18.4713 6.75661 18.4713 6.31581C18.4713 5.87501 18.6358 5.45226 18.9287 5.14057C19.2216 4.82887 19.6188 4.65376 20.033 4.65376ZM13.4738 6.64822C15.1305 6.64822 16.7195 7.34865 17.891 8.59543C19.0625 9.84221 19.7207 11.5332 19.7207 13.2964C19.7207 15.0596 19.0625 16.7506 17.891 17.9974C16.7195 19.2442 15.1305 19.9446 13.4738 19.9446C11.817 19.9446 10.2281 19.2442 9.05655 17.9974C7.88503 16.7506 7.22688 15.0596 7.22688 13.2964C7.22688 11.5332 7.88503 9.84221 9.05655 8.59543C10.2281 7.34865 11.817 6.64822 13.4738 6.64822ZM13.4738 9.3075C12.4797 9.3075 11.5263 9.72776 10.8234 10.4758C10.1205 11.2239 9.72563 12.2385 9.72563 13.2964C9.72563 14.3543 10.1205 15.3689 10.8234 16.117C11.5263 16.8651 12.4797 17.2853 13.4738 17.2853C14.4678 17.2853 15.4212 16.8651 16.1241 16.117C16.827 15.3689 17.2219 14.3543 17.2219 13.2964C17.2219 12.2385 16.827 11.2239 16.1241 10.4758C15.4212 9.72776 14.4678 9.3075 13.4738 9.3075Z" fill="white"/>
</svg>
