<svg width="26" height="27" viewBox="0 0 26 27" fill="none" xmlns="http://www.w3.org/2000/svg">
<path d="M6.21176 2.9561C6.21141 3.7397 5.93483 4.49106 5.44287 5.04487C4.9509 5.59869 4.28385 5.9096 3.58845 5.90921C2.89306 5.90881 2.22628 5.59715 1.73481 5.04278C1.24334 4.48841 0.967426 3.73675 0.967774 2.95314C0.968121 2.16954 1.2447 1.41818 1.73666 0.864365C2.22863 0.310549 2.89568 -0.000360915 3.59108 3.08874e-05C4.28647 0.00042269 4.95325 0.312084 5.44472 0.866454C5.93619 1.42082 6.2121 2.17249 6.21176 2.9561ZM6.29042 8.09708H1.04643V26.5928H6.29042V8.09708ZM14.5759 8.09708H9.35815V26.5928H14.5235V16.887C14.5235 11.4801 20.7769 10.9778 20.7769 16.887V26.5928H25.9554V14.8779C25.9554 5.76295 16.6997 6.10273 14.5235 10.5789L14.5759 8.09708Z" fill="white"/>
</svg>
