<svg width="25" height="27" viewBox="0 0 25 27" fill="none" xmlns="http://www.w3.org/2000/svg">
<path d="M21.3462 3.86933C20.195 2.63798 18.8238 1.66168 17.3125 0.997376C15.8013 0.333066 14.1803 -0.00595693 12.544 7.92061e-05C5.68813 7.92061e-05 0.100453 5.91697 0.100453 13.1768C0.100453 15.5037 0.678055 17.764 1.75792 19.7585L0 26.5928L6.5922 24.7579C8.4129 25.8084 10.4596 26.3668 12.544 26.3668C19.3999 26.3668 24.9876 20.4499 24.9876 13.1901C24.9876 9.66655 23.6942 6.35575 21.3462 3.86933ZM12.544 24.133C10.6856 24.133 8.86494 23.6012 7.27025 22.6039L6.89356 22.3646L2.97591 23.4549L4.0181 19.4128L3.76697 19.0006C2.7345 17.2548 2.18628 15.2367 2.18484 13.1768C2.18484 7.14024 6.83077 2.22058 12.5315 2.22058C15.2939 2.22058 17.8931 3.36406 19.8394 5.4383C20.8031 6.45409 21.5668 7.66233 22.0862 8.99299C22.6057 10.3236 22.8706 11.7502 22.8655 13.1901C22.8906 19.2266 18.2447 24.133 12.544 24.133ZM18.2196 15.9424C17.9057 15.7829 16.3738 14.9851 16.0975 14.8654C15.8087 14.7591 15.6078 14.7059 15.3944 15.025C15.1809 15.3574 14.5907 16.102 14.4149 16.3147C14.2392 16.5408 14.0508 16.5674 13.7369 16.3945C13.423 16.235 12.4184 15.876 11.2381 14.7591C10.3089 13.8815 9.69367 12.8045 9.50532 12.4721C9.32953 12.1397 9.48021 11.9668 9.64345 11.794C9.78157 11.6477 9.95736 11.4084 10.108 11.2222C10.2587 11.0361 10.3215 10.8898 10.422 10.6771C10.5224 10.451 10.4722 10.2649 10.3968 10.1053C10.3215 9.94577 9.69367 8.32361 9.44254 7.6588C9.19141 7.02057 8.92772 7.10035 8.73937 7.08705H8.13666C7.9232 7.08705 7.59672 7.16683 7.30792 7.49924C7.03168 7.83165 6.22806 8.62943 6.22806 10.2516C6.22806 11.8737 7.34559 13.4427 7.49627 13.6555C7.64695 13.8815 9.69367 17.2056 12.8077 18.6283C13.5485 18.974 14.1261 19.1735 14.5782 19.3197C15.319 19.5724 15.9971 19.5325 16.537 19.4527C17.1397 19.3596 18.3828 18.6549 18.6339 17.8837C18.8976 17.1125 18.8976 16.461 18.8097 16.3147C18.7218 16.1685 18.5335 16.102 18.2196 15.9424Z" fill="white"/>
</svg>
