<svg width="24" height="24" viewBox="0 0 24 24" fill="none" xmlns="http://www.w3.org/2000/svg">
<path fill-rule="evenodd" clip-rule="evenodd" d="M12.2498 13.4949C10.7408 13.4949 9.51278 12.2679 9.51278 10.7589C9.51278 9.24988 10.7408 8.02188 12.2498 8.02188C13.7588 8.02188 14.9858 9.24988 14.9858 10.7589C14.9858 12.2679 13.7588 13.4949 12.2498 13.4949ZM17.8638 4.65188C16.3328 3.07288 14.3388 2.20288 12.2498 2.20288C10.1588 2.20288 8.16478 3.07288 6.63278 4.65288C5.07778 6.25688 4.22378 8.41188 4.29078 10.5659C4.47978 16.6699 11.6698 21.4229 11.9768 21.6219L12.2458 21.7969L12.5178 21.6249C12.8238 21.4309 20.0188 16.7929 20.2088 10.5649C20.2748 8.41188 19.4198 6.25588 17.8638 4.65188Z" fill="black"/>
</svg>
