<svg width="24" height="24" viewBox="0 0 24 24" fill="none" xmlns="http://www.w3.org/2000/svg">
<g clip-path="url(#clip0_18_316)">
<path d="M20.3594 1.8682C19.0531 0.606054 16.6917 0.0649414 13.6708 0.0649414H4.9033C4.6044 0.0649023 4.31529 0.155276 4.08797 0.319806C3.86066 0.484337 3.71006 0.712225 3.66327 0.962478L0.0126473 20.589C-0.0599152 20.976 0.293616 21.3265 0.756366 21.3265H6.16912L7.52849 14.0175L7.4863 14.2464C7.58315 13.7298 8.1044 13.3487 8.72165 13.3487H11.2938C16.3467 13.3487 20.3032 11.6089 21.459 6.57617C21.4933 6.42733 21.523 6.28245 21.5487 6.14092C21.4028 6.07543 21.4028 6.07543 21.5487 6.14092C21.8929 4.28076 21.5464 3.01456 20.3594 1.8682Z" fill="#27346A"/>
<path d="M9.59962 5.47082C9.74755 5.411 9.90943 5.38004 10.0733 5.38023H16.9469C17.7608 5.38023 18.52 5.42513 19.2138 5.51978C19.4079 5.54603 19.601 5.57736 19.7929 5.61371C20.0648 5.66458 20.3335 5.72683 20.5982 5.80023C20.9392 5.89678 21.2569 6.00923 21.5488 6.14092C21.8929 4.28004 21.5464 3.01456 20.3594 1.8682C19.0523 0.606054 16.6917 0.0649414 13.6708 0.0649414H4.90255C4.28521 0.0649414 3.76002 0.445922 3.66327 0.962478L0.0126478 20.5883C-0.0599147 20.9759 0.293617 21.3259 0.755617 21.3259H6.16912L8.9894 6.16539C9.01715 6.01638 9.08719 5.87532 9.19348 5.75433C9.29978 5.63334 9.43915 5.53605 9.59962 5.47082Z" fill="#27346A"/>
<path d="M21.4591 6.57613C20.3033 11.6082 16.3469 13.3487 11.2939 13.3487H8.72099C8.10374 13.3487 7.5824 13.7297 7.48649 14.2464L5.79533 23.3342C5.73215 23.6729 6.04115 23.9798 6.4454 23.9798H11.0082C11.2696 23.9797 11.5224 23.9006 11.7211 23.7567C11.9198 23.6128 12.0514 23.4135 12.0922 23.1946L12.1367 22.9975L12.9966 18.3775L13.0521 18.1221C13.0929 17.9033 13.2245 17.704 13.4232 17.5601C13.6219 17.4161 13.8746 17.337 14.136 17.3369H14.8189C19.2389 17.3369 22.6999 15.8148 23.7112 11.4124C24.1334 9.57271 23.915 8.03671 22.7982 6.95782C22.4595 6.63104 22.0388 6.36116 21.5488 6.14087C21.5223 6.28312 21.4935 6.42728 21.4591 6.57613Z" fill="#2790C3"/>
<path d="M20.3392 5.7321C20.1589 5.6875 19.977 5.64801 19.7937 5.61369C19.6018 5.57792 19.4087 5.54681 19.2146 5.52039C18.5201 5.42511 17.7615 5.38013 16.9468 5.38013H10.0741C9.91008 5.3799 9.74814 5.41111 9.60037 5.47144C9.4397 5.53643 9.30014 5.63366 9.1938 5.75469C9.08745 5.87572 9.01752 6.0169 8.99006 6.16601L7.52925 14.0175L7.48706 14.2464C7.58315 13.7297 8.1044 13.3487 8.72175 13.3487H11.2946C16.3476 13.3487 20.304 11.6089 21.4597 6.57616C21.4942 6.42731 21.523 6.28307 21.5496 6.1409C21.2569 6.01004 20.9401 5.89668 20.5989 5.80084C20.5129 5.77665 20.4263 5.75373 20.3392 5.7321" fill="#1F264F"/>
</g>
<defs>
<clipPath id="clip0_18_316">
<rect width="24" height="24" fill="white"/>
</clipPath>
</defs>
</svg>
